# xmcd
#
# Track frame offsets:
# 150
# 17892
# 38202
# 55562
# 74337
# 90997
# 112897
# 134485
# 152010
#
# Disc length: 2340 seconds
#
#
# Revision: 0
# Processed by: cddbd v1.5.1PL2 Copyright (c) Steve Scherf et al.
# Submitted via: FreeRIP 2.944 
#
DISCID=6b092209
DTITLE=Roberto Carlos - Todas as manhas
DYEAR=1991
DGENRE=Ballad
TTITLE0=Todas As manhãs
TTITLE1=Primeira Dama
TTITLE2=Se você quer
TTITLE3=Não me deixe
TTITLE4=Toh,oh,ohack-05
TTITLE5=luz divina
TTITLE6=pergunte pro seu coração
TTITLE7=diga-me coisas bonitas
TTITLE8=mudança
EXTD=
EXTT0=
EXTT1=
EXTT2=
EXTT3=
EXTT4=
EXTT5=
EXTT6=
EXTT7=
EXTT8=
PLAYORDER=
